<svg class="img-fluid" id="outputsvg" xmlns="http://www.w3.org/2000/svg" style="transform: none; transform-origin: 50% 50%; cursor: move;" width="480" height="480" viewBox="0 0 4800 4800"><g id="l60E8llNMAJ2qFkhyS47BeT" fill="rgb(24,93,183)" style="transform: none;"><g style="transform: none;"><path id="p144oj0qG6" d="M1890 2711 c0 -5 6 -12 13 -14 6 -3 1 -6 -12 -6 -19 -1 -23 -5 -19 -25 3 -12 112 -210 244 -439 169 -295 244 -416 257 -417 9 0 17 5 17 10 0 6 10 21 21 33 l21 22 -11 -22 c-30 -58 4 -58 41 0 106 169 458 794 458 813 0 16 -6 24 -17 25 -11 0 -13 3 -5 6 48 19 -36 23 -498 23 -302 0 -510 -4 -510 -9z"></path></g></g><g id="l6thCd9cIqNP4PMoET68y6v" fill="rgb(52,168,83)" style="transform: none;"><g style="transform: none;"><path id="pBfTtfUq7" d="M1900 2700 c20 -13 40 -13 40 0 0 6 -12 10 -27 10 -22 0 -25 -2 -13 -10z"></path><path id="p3G0D5T3W" d="M913 2680 c-131 -26 -233 -149 -233 -280 0 -106 73 -216 172 -261 l53 -24 497 -3 c429 -3 496 -5 491 -18 -4 -12 22 -14 175 -14 l181 0 -126 218 c-69 119 -148 256 -175 304 l-50 88 -472 -1 c-259 -1 -490 -5 -513 -9z"></path></g></g><g id="l4ctnvroRzjBK442FcyEcxn" fill="rgb(234,67,53)" style="transform: none;"><g style="transform: none;"><path id="pJvvPKtYW" d="M1594 3912 c-75 -27 -128 -73 -163 -144 -33 -65 -41 -139 -22 -206 11 -36 478 -852 495 -864 14 -10 978 -10 992 0 17 12 484 828 495 864 42 150 -48 310 -199 354 -99 29 -212 -4 -283 -83 -19 -21 -140 -222 -269 -446 -129 -224 -237 -407 -240 -407 -3 0 -111 183 -240 407 -129 224 -250 425 -269 446 -73 81 -198 115 -297 79z"></path><path id="p9sd4o1Gk" d="M2890 2675 c0 -8 7 -15 15 -15 8 0 15 7 15 15 0 8 -7 15 -15 15 -8 0 -15 -7 -15 -15z"></path></g></g><g id="l2xVeouwfjCoyE7DMrtAloe" fill="rgb(26,115,232)" style="transform: none;"><g style="transform: none;"><path id="pj85xbSQQ" d="M2890 2682 c0 -5 -97 -178 -216 -383 -217 -375 -264 -460 -264 -478 0 -19 473 -828 503 -859 136 -143 368 -107 456 69 35 69 41 154 17 219 -7 19 -119 219 -249 445 l-237 410 497 5 498 5 53 24 c99 45 172 155 172 261 0 106 -73 216 -172 261 l-53 24 -502 3 c-307 2 -503 -1 -503 -6z"></path></g></g><g id="l5n0v85mPLQyLkhA4lSFeKJ" fill="rgb(251,188,4)" style="transform: none;"><g style="transform: none;"><path id="pucn5qQmI" d="M1661 1691 c-133 -231 -246 -435 -252 -453 -42 -150 48 -310 199 -354 96 -28 208 3 279 78 32 34 503 840 503 861 0 7 -35 73 -77 147 l-78 135 -166 3 -166 2 -242 -419z"></path></g></g></svg>
