<svg class="img-fluid" id="outputsvg" xmlns="http://www.w3.org/2000/svg" style="transform: matrix(1, 0, 0, 1, 0, 0); transform-origin: 50% 50%; cursor: move; transition: transform 200ms ease-in-out;" width="278" height="326" viewBox="0 0 2780 3260"><g id="l7LuXgr3nHos1NrCX7gQYFx" fill="rgb(15,119,214)" style="transform: none;"><g style="transform: none;"><path id="poDF74FDS" d="M1915 3235 c-166 -37 -341 -89 -466 -139 -62 -25 -115 -49 -118 -53 -3 -4 -15 -9 -26 -11 -29 -5 -222 -113 -333 -187 -264 -175 -462 -377 -647 -659 -90 -138 -242 -460 -290 -617 -22 -71 -14 -117 28 -166 26 -30 169 -141 331 -258 l28 -20 -17 -60 c-22 -82 -31 -255 -16 -340 57 -326 294 -595 606 -686 98 -29 266 -36 371 -16 264 50 465 205 605 467 l24 44 100 -4 c55 -3 158 -4 228 -2 201 4 211 13 290 258 79 243 127 461 147 663 57 579 -144 1198 -552 1699 -93 113 -127 123 -293 87z m-347 -839 c48 -19 166 -64 262 -101 205 -78 220 -86 220 -122 0 -41 -103 -171 -307 -387 l-83 -88 32 -66 c29 -58 33 -76 33 -147 0 -71 -4 -88 -33 -147 -47 -96 -115 -150 -214 -168 -67 -13 -146 1 -207 37 -25 15 -50 26 -56 24 -5 -1 -7 0 -3 4 4 4 -9 30 -27 57 -44 64 -58 117 -53 198 10 138 95 235 244 275 7 2 13 69 17 192 13 372 30 472 80 473 4 0 47 -15 95 -34z m-543 -1559 c302 -119 451 -171 471 -163 8 3 12 2 9 -4 -3 -5 22 -16 55 -26 33 -9 60 -19 60 -21 0 -19 -84 -113 -132 -149 -139 -102 -312 -121 -472 -50 -115 51 -217 184 -251 327 -23 99 -19 197 9 186 6 -3 119 -48 251 -100z"></path></g></g></svg>
