<svg class="img-fluid" id="outputsvg" xmlns="http://www.w3.org/2000/svg" style="transform: matrix(1, 0, 0, 1, 0, 0); transform-origin: 50% 50%; cursor: move; transition: transform 200ms ease-in-out;" width="303" height="304" viewBox="0 0 3030 3040"><g id="l3gLr43YJq1odM2T9dHVWxh" fill="rgb(236,51,50)" style="transform: none;"><g><path id="p8P3nh0fd" d="M1335 3003 c-239 -31 -484 -121 -676 -249 -91 -60 -225 -179 -298 -263 -106 -124 -220 -308 -205 -333 4 -6 3 -8 -3 -5 -19 12 -94 -199 -124 -348 -19 -94 -19 -416 0 -510 64 -325 217 -605 457 -836 222 -213 454 -334 766 -400 149 -32 419 -32 568 0 260 55 511 175 675 323 28 24 61 53 73 64 33 27 141 158 189 229 92 137 174 338 215 529 33 150 32 427 0 580 -64 297 -203 555 -417 771 -242 244 -513 390 -820 440 -82 14 -321 18 -400 8z m-200 -753 c18 -11 38 -33 45 -49 16 -40 -8 -86 -58 -108 -157 -67 -178 -79 -252 -153 -126 -125 -173 -247 -174 -450 -1 -144 22 -226 95 -334 57 -86 118 -142 203 -187 83 -45 146 -59 262 -59 210 0 349 82 451 269 154 280 182 321 224 321 28 0 77 -27 89 -49 12 -24 13 -64 1 -76 -5 -6 -53 -86 -106 -180 -54 -93 -117 -197 -141 -231 -127 -179 -383 -296 -580 -264 -334 53 -596 298 -675 628 -48 199 6 456 135 636 86 120 203 216 341 278 72 33 97 34 140 8z m899 -55 c103 -27 193 -82 287 -175 265 -262 279 -590 39 -945 -72 -107 -117 -155 -146 -155 -30 0 -94 56 -94 83 0 11 24 57 54 101 67 100 119 204 141 281 14 45 16 86 13 184 -3 115 -6 132 -34 191 -40 85 -126 178 -201 215 -52 27 -69 30 -171 33 -107 4 -115 2 -176 -26 -117 -55 -169 -116 -336 -391 -58 -96 -118 -183 -133 -195 -27 -20 -28 -20 -60 -3 -32 17 -67 63 -67 86 0 38 220 381 320 498 163 191 366 269 564 218z"></path></g></g><g id="l4ckVV7vGDhz8G98l7KGf1k" fill="rgb(252,251,251)" style="transform: none;"><g><path id="pAMy52g81" d="M1040 2304 c-137 -53 -222 -105 -308 -188 -171 -163 -249 -345 -259 -601 -4 -109 -2 -144 16 -217 79 -331 341 -575 675 -629 237 -38 505 73 640 265 36 51 205 336 253 426 61 115 -104 235 -201 147 -22 -20 -71 -100 -179 -298 -96 -175 -243 -269 -421 -269 -175 0 -329 88 -435 246 -67 100 -93 183 -94 300 0 176 52 303 173 424 73 73 128 106 249 151 87 32 97 169 16 219 -33 20 -100 33 -125 24z"></path><path id="pGYqHEXF3" d="M1765 2225 c-171 -46 -291 -150 -454 -390 -83 -122 -185 -300 -195 -338 -9 -38 24 -107 63 -130 39 -23 102 -22 133 2 14 11 64 86 113 168 168 282 234 360 351 415 58 27 72 30 147 27 106 -5 176 -39 254 -123 83 -90 115 -165 121 -286 7 -145 -31 -252 -157 -439 -48 -72 -56 -91 -55 -128 1 -50 29 -87 82 -110 74 -31 120 0 222 152 198 293 228 593 86 850 -82 147 -261 290 -412 330 -72 19 -230 19 -299 0z"></path></g></g></svg>
